<svg xmlns="http://www.w3.org/2000/svg" version="1.1" xmlns:xlink="http://www.w3.org/1999/xlink" xmlns:svgjs="http://svgjs.dev/svgjs" width="1000" height="625" viewBox="0 0 1000 625"><g transform="matrix(1,0,0,1,0,0)"><svg xmlns="http://www.w3.org/2000/svg" version="1.1" xmlns:xlink="http://www.w3.org/1999/xlink" xmlns:svgjs="http://svgjs.com/svgjs" viewBox="0 0 576 360" data-background-color="#ffffff" preserveAspectRatio="xMidYMid meet" height="625" width="1000"><defs></defs><g id="tight-bounds" transform="matrix(1,0,0,1,0,0)"><svg viewBox="0 0 576 360" height="360" width="576"><g><svg xmlns="http://www.w3.org/2000/svg" version="1.1" xmlns:xlink="http://www.w3.org/1999/xlink" xmlns:svgjs="http://svgjs.com/svgjs"></svg></g><g><svg viewBox="0 0 576 360" height="360" width="576"><g><path d="M132.115 90l155.885-90 155.885 90v180l-155.885 90-155.885-90zM134.765 268.47l153.235 88.471 153.235-88.471v-176.94l-153.235-88.471-153.235 88.471z" fill="#001f3f" data-fill-palette-color="tertiary"></path></g><g transform="matrix(1,0,0,1,172.8,121.24096283963306)"><svg viewBox="0 0 230.4 117.51807432073387" height="117.51807432073387" width="230.4"><g><svg viewBox="0 0 230.4 117.51807432073387" height="117.51807432073387" width="230.4"><g transform="matrix(1,0,0,1,0,88.13911394079763)"><svg viewBox="0 0 230.4 29.37896037993625" height="29.37896037993625" width="230.4"><g><svg viewBox="0 0 230.4 29.37896037993625" height="29.37896037993625" width="230.4"><g><svg viewBox="0 0 230.4 29.37896037993625" height="29.37896037993625" width="230.4"><g transform="matrix(1,0,0,1,0,0)"><svg width="230.4" viewBox="3.43 -37.93 384.24 49.010000000000005" height="29.37896037993625" data-palette-color="#001f3f"><path d="M17.57-5.38L17.57-5.38Q19.2-5.38 20.64-6.01 22.08-6.65 23.5-7.65L23.5-7.65 27.03-2.65Q25.28-1.15 22.76-0.15 20.25 0.85 17.15 0.85L17.15 0.85Q12.88 0.85 9.8-0.91 6.73-2.68 5.08-5.81 3.43-8.95 3.43-13.1L3.43-13.1Q3.43-17.25 5.11-20.49 6.8-23.73 9.91-25.58 13.03-27.43 17.3-27.43L17.3-27.43Q20.33-27.43 22.69-26.59 25.05-25.75 27.03-24.1L27.03-24.1 23.6-19.35Q22.25-20.3 20.75-20.83 19.25-21.35 17.63-21.35L17.63-21.35Q14.95-21.35 13.31-19.46 11.68-17.57 11.68-13.1L11.68-13.1Q11.68-10.18 12.45-8.49 13.23-6.8 14.56-6.09 15.9-5.38 17.57-5.38ZM33.5-37.1L41.4-37.88 41.4-23.93Q43.07-25.7 45.03-26.56 47-27.43 49.2-27.43L49.2-27.43Q52.75-27.43 54.62-25.35 56.5-23.28 56.5-19.5L56.5-19.5 56.5 0 48.6 0 48.6-17.3Q48.6-19.7 48.06-20.65 47.52-21.6 46.05-21.6L46.05-21.6Q45.22-21.6 44.44-21.21 43.65-20.83 42.9-20.1 42.15-19.38 41.4-18.38L41.4-18.38 41.4 0 33.5 0 33.5-37.1ZM87.55-10.98L70.34-10.98Q70.62-8.8 71.48-7.46 72.34-6.13 73.7-5.51 75.05-4.9 76.72-4.9L76.72-4.9Q78.55-4.9 80.25-5.5 81.95-6.1 83.52-7.1L83.52-7.1 86.7-2.8Q84.82-1.2 82.16-0.18 79.5 0.85 76.09 0.85L76.09 0.85Q71.55 0.85 68.47-0.96 65.4-2.78 63.85-5.95 62.3-9.13 62.3-13.25L62.3-13.25Q62.3-17.18 63.8-20.39 65.3-23.6 68.18-25.51 71.07-27.43 75.25-27.43L75.25-27.43Q79.05-27.43 81.83-25.8 84.62-24.18 86.16-21.13 87.7-18.07 87.7-13.8L87.7-13.8Q87.7-13.13 87.66-12.35 87.62-11.58 87.55-10.98L87.55-10.98ZM75.25-22.13L75.25-22.13Q73.12-22.13 71.82-20.6 70.52-19.07 70.25-15.73L70.25-15.73 80-15.73Q79.97-18.63 78.87-20.38 77.77-22.13 75.25-22.13ZM107.57-5.38L107.57-5.38Q109.19-5.38 110.63-6.01 112.07-6.65 113.49-7.65L113.49-7.65 117.02-2.65Q115.27-1.15 112.76-0.15 110.24 0.85 107.14 0.85L107.14 0.85Q102.87 0.85 99.79-0.91 96.72-2.68 95.07-5.81 93.42-8.95 93.42-13.1L93.42-13.1Q93.42-17.25 95.11-20.49 96.79-23.73 99.91-25.58 103.02-27.43 107.29-27.43L107.29-27.43Q110.32-27.43 112.68-26.59 115.04-25.75 117.02-24.1L117.02-24.1 113.59-19.35Q112.24-20.3 110.74-20.83 109.24-21.35 107.62-21.35L107.62-21.35Q104.94-21.35 103.31-19.46 101.67-17.57 101.67-13.1L101.67-13.1Q101.67-10.18 102.44-8.49 103.22-6.8 104.56-6.09 105.89-5.38 107.57-5.38ZM140.42-26.55L148.69-26.55 139.97-14.8 149.42 0 140.42 0 131.69-14.55 140.42-26.55ZM123.49-37.1L131.39-37.93 131.39 0 123.49 0 123.49-37.1ZM177.49 9.3L152.49 9.3 152.49 3.1 177.49 3.1 177.49 9.3ZM200.54-26.55L208.54-26.55 199.69 0 190.39 0 181.44-26.55 189.96-26.55 195.14-6.05 200.54-26.55ZM224.13-4.8L224.13-4.8Q226.11-4.8 227.32-5.43 228.53-6.05 228.53-7.3L228.53-7.3Q228.53-8.15 228.06-8.72 227.58-9.3 226.23-9.83 224.88-10.35 222.23-11.08L222.23-11.08Q219.81-11.73 217.95-12.73 216.08-13.73 215.05-15.3 214.01-16.88 214.01-19.23L214.01-19.23Q214.01-21.6 215.33-23.45 216.66-25.3 219.23-26.36 221.81-27.43 225.53-27.43L225.53-27.43Q229.08-27.43 231.72-26.51 234.36-25.6 236.28-24.2L236.28-24.2 233.13-19.55Q231.48-20.58 229.58-21.19 227.68-21.8 225.76-21.8L225.76-21.8Q223.83-21.8 222.9-21.29 221.96-20.78 221.96-19.75L221.96-19.75Q221.96-19.07 222.45-18.59 222.93-18.1 224.28-17.59 225.63-17.07 228.23-16.32L228.23-16.32Q230.81-15.6 232.72-14.65 234.63-13.7 235.68-12.11 236.73-10.53 236.73-7.93L236.73-7.93Q236.73-5.03 235.01-3.06 233.28-1.1 230.43-0.13 227.58 0.85 224.18 0.85L224.18 0.85Q220.33 0.85 217.38-0.25 214.43-1.35 212.36-3.15L212.36-3.15 216.33-7.6Q217.88-6.4 219.85-5.6 221.81-4.8 224.13-4.8ZM258.18-27.43L258.18-27.43Q261.66-27.43 263.78-25.7 265.91-23.98 266.89-20.83 267.88-17.68 267.88-13.35L267.88-13.35Q267.88-9.25 266.68-6.04 265.48-2.83 263.21-0.99 260.93 0.85 257.68 0.85L257.68 0.85Q253.81 0.85 251.38-1.93L251.38-1.93 251.38 10.25 243.48 11.08 243.48-26.55 250.48-26.55 250.83-23.58Q252.46-25.65 254.38-26.54 256.31-27.43 258.18-27.43ZM255.73-21.6L255.73-21.6Q254.36-21.6 253.31-20.78 252.26-19.95 251.38-18.53L251.38-18.53 251.38-7.33Q252.21-6.1 253.12-5.53 254.03-4.95 255.28-4.95L255.28-4.95Q257.38-4.95 258.56-6.86 259.73-8.78 259.73-13.25L259.73-13.25Q259.73-16.55 259.25-18.36 258.78-20.18 257.88-20.89 256.98-21.6 255.73-21.6ZM273.48-37.1L281.38-37.88 281.38-23.93Q283.05-25.7 285.02-26.56 286.98-27.43 289.18-27.43L289.18-27.43Q292.73-27.43 294.6-25.35 296.48-23.28 296.48-19.5L296.48-19.5 296.48 0 288.58 0 288.58-17.3Q288.58-19.7 288.04-20.65 287.5-21.6 286.03-21.6L286.03-21.6Q285.2-21.6 284.42-21.21 283.63-20.83 282.88-20.1 282.13-19.38 281.38-18.38L281.38-18.38 281.38 0 273.48 0 273.48-37.1ZM327.53-10.98L310.33-10.98Q310.6-8.8 311.46-7.46 312.33-6.13 313.68-5.51 315.03-4.9 316.7-4.9L316.7-4.9Q318.53-4.9 320.23-5.5 321.93-6.1 323.5-7.1L323.5-7.1 326.68-2.8Q324.8-1.2 322.14-0.18 319.48 0.85 316.08 0.85L316.08 0.85Q311.53 0.85 308.45-0.96 305.38-2.78 303.83-5.95 302.28-9.13 302.28-13.25L302.28-13.25Q302.28-17.18 303.78-20.39 305.28-23.6 308.16-25.51 311.05-27.43 315.23-27.43L315.23-27.43Q319.03-27.43 321.81-25.8 324.6-24.18 326.14-21.13 327.68-18.07 327.68-13.8L327.68-13.8Q327.68-13.13 327.64-12.35 327.6-11.58 327.53-10.98L327.53-10.98ZM315.23-22.13L315.23-22.13Q313.1-22.13 311.8-20.6 310.5-19.07 310.23-15.73L310.23-15.73 319.98-15.73Q319.95-18.63 318.85-20.38 317.75-22.13 315.23-22.13ZM350.37 0L333.72 0 333.72-5.3 337.22-5.3 337.22-21.3 333.72-21.3 333.72-26.55 343.25-26.55 344.7-20.58Q346.12-24 348.34-25.68 350.55-27.35 353.75-27.35L353.75-27.35Q355.1-27.35 356.15-27.14 357.2-26.93 358.12-26.55L358.12-26.55 355.72-20.03Q355-20.23 354.27-20.33 353.55-20.43 352.67-20.43L352.67-20.43Q350.07-20.43 348.11-18.3 346.15-16.18 345.12-12.9L345.12-12.9 345.12-5.3 350.37-5.3 350.37 0ZM356.65-15.45L351.7-15.45 351.7-23.2 352.87-26.55 358.12-26.55 356.65-15.45ZM387.52-10.98L370.32-10.98Q370.6-8.8 371.46-7.46 372.32-6.13 373.67-5.51 375.02-4.9 376.7-4.9L376.7-4.9Q378.52-4.9 380.22-5.5 381.92-6.1 383.5-7.1L383.5-7.1 386.67-2.8Q384.8-1.2 382.13-0.18 379.47 0.85 376.07 0.85L376.07 0.85Q371.52 0.85 368.45-0.96 365.37-2.78 363.82-5.95 362.27-9.13 362.27-13.25L362.27-13.25Q362.27-17.18 363.77-20.39 365.27-23.6 368.16-25.51 371.05-27.43 375.22-27.43L375.22-27.43Q379.02-27.43 381.81-25.8 384.6-24.18 386.13-21.13 387.67-18.07 387.67-13.8L387.67-13.8Q387.67-13.13 387.63-12.35 387.6-11.58 387.52-10.98L387.52-10.98ZM375.22-22.13L375.22-22.13Q373.1-22.13 371.8-20.6 370.5-19.07 370.22-15.73L370.22-15.73 379.97-15.73Q379.95-18.63 378.85-20.38 377.75-22.13 375.22-22.13Z" opacity="1" transform="matrix(1,0,0,1,0,0)" fill="#001f3f" class="undefined-text-0" data-fill-palette-color="primary" id="text-0"></path></svg></g></svg></g></svg></g></svg></g><g transform="matrix(1,0,0,1,80.14012992079634,0)"><svg viewBox="0 0 70.11974015840731 81.2034464901438" height="81.2034464901438" width="70.11974015840731"><g><svg xmlns="http://www.w3.org/2000/svg" xmlns:xlink="http://www.w3.org/1999/xlink" version="1.1" x="0" y="0" viewBox="11.437192982876665 5.340627532306662 77.12657731541779 89.31784230591654" enable-background="new 0 0 100 100" xml:space="preserve" height="81.2034464901438" width="70.11974015840731" class="icon-icon-0" data-fill-palette-color="accent" id="icon-0"><g fill="#0074d9" data-fill-palette-color="accent"><g fill="#0074d9" data-fill-palette-color="accent"><path fill-rule="evenodd" clip-rule="evenodd" d="M32.445 9.102c-0.9 0.854-1.809 1.57-2.537 2.437-2.707 3.223-2.471 6.969 0.601 10.102 2.327 2.374 5.227 3.8 8.328 4.845 5.384 1.815 10.926 2.322 16.568 1.873 4.123-0.329 8.113-1.194 11.828-3.09 1.612-0.822 3.088-1.834 4.291-3.207 2.537-2.895 2.615-6.427 0.167-9.416-0.679-0.827-1.46-1.567-2.287-2.445 0.551 0.401 1.018 0.729 1.474 1.073 2.507 1.893 4.803 4.016 6.752 6.481 4.051 5.125 3.554 10.868-1.265 15.294-2.77 2.543-6.048 4.17-9.575 5.342-6.02 1.998-12.213 2.545-18.509 2.145-5.202-0.33-10.25-1.371-15.071-3.394-3.475-1.459-6.669-3.355-9.198-6.213-2.031-2.294-3.297-4.904-3.135-8.061 0.136-2.665 1.299-4.894 3.036-6.829 2.399-2.673 5.176-4.907 8.237-6.788C32.222 9.208 32.3 9.175 32.445 9.102z" fill="#0074d9" data-fill-palette-color="accent"></path><path fill-rule="evenodd" clip-rule="evenodd" d="M17.718 24.574c-0.315 1.119-0.705 2.168-0.9 3.254-0.657 3.64 0.288 6.931 2.36 9.933 2.113 3.061 4.958 5.296 8.153 7.118 4.777 2.722 9.95 4.28 15.347 5.161 4.513 0.737 9.054 0.925 13.607 0.547 7.125-0.593 13.937-2.254 20.007-6.234 2.666-1.75 4.935-3.913 6.455-6.765 1.737-3.258 2.016-6.646 0.824-10.147-0.072-0.213-0.134-0.429-0.201-0.645 0.061-0.023 0.122-0.046 0.182-0.069 0.726 1.806 1.477 3.601 2.17 5.418 2.7 7.078 0.205 13.456-4.913 18.144-4.43 4.059-9.765 6.374-15.503 7.836-6.16 1.57-12.419 1.989-18.748 1.431-7.09-0.627-13.862-2.358-20.124-5.822-4.161-2.303-7.792-5.229-10.273-9.371-2.683-4.478-3.214-9.185-1.192-14.063 0.738-1.783 1.623-3.507 2.447-5.255C17.486 24.89 17.6 24.754 17.718 24.574z" fill="#0074d9" data-fill-palette-color="accent"></path><path fill-rule="evenodd" clip-rule="evenodd" d="M88.219 42.895c0.1 1.264 0.216 2.528 0.296 3.794 0.541 8.509-3.458 14.71-10.05 19.527-5.08 3.711-10.856 5.813-17.001 6.946-9.799 1.807-19.416 1.094-28.807-2.258C27.329 69 22.489 66.257 18.442 62.238c-3.424-3.397-5.849-7.356-6.73-12.164-0.421-2.3-0.304-4.601-0.012-6.901 0.144-1.128 0.326-2.252 0.57-3.368 0 0.815-0.021 1.632 0.004 2.448 0.134 4.219 1.732 7.885 4.315 11.15 3.519 4.447 8.122 7.435 13.26 9.666 5.417 2.352 11.098 3.633 16.975 4.093 8.207 0.644 16.204-0.274 23.906-3.271 4.549-1.772 8.665-4.24 12.022-7.847 2.858-3.067 4.726-6.629 5.192-10.841 0.082-0.758 0.012-1.534 0.012-2.302C88.043 42.898 88.131 42.896 88.219 42.895z" fill="#0074d9" data-fill-palette-color="accent"></path><path fill-rule="evenodd" clip-rule="evenodd" d="M11.54 54.317c1.203 6.626 4.809 11.713 9.948 15.82 5.565 4.447 11.983 7.05 18.914 8.424 9.218 1.823 18.332 1.411 27.262-1.637 5.598-1.911 10.61-4.799 14.646-9.214 2.479-2.712 4.271-5.811 5.246-9.366 0.054-0.197 0.116-0.393 0.174-0.587 0.058 0.013 0.114 0.027 0.172 0.042-0.371 1.626-0.691 3.267-1.12 4.879-1.588 5.973-5.23 10.495-10.141 14.068-5.212 3.789-11.108 5.957-17.422 6.994-9.026 1.484-17.854 0.667-26.408-2.629-5.743-2.212-10.818-5.438-14.867-10.148-3.196-3.715-5.188-7.986-5.883-12.849C11.879 56.851 11.713 55.583 11.54 54.317z" fill="#0074d9" data-fill-palette-color="accent"></path><path fill-rule="evenodd" clip-rule="evenodd" d="M15.219 69.142c0.792 1.3 1.513 2.651 2.392 3.893 3.704 5.229 8.704 8.837 14.529 11.353 6.935 2.997 14.191 4.146 21.718 3.64 7.221-0.483 13.98-2.433 20.081-6.41 3.666-2.391 6.717-5.4 8.966-9.183 0.067-0.113 0.145-0.219 0.321-0.277-0.12 0.239-0.243 0.475-0.359 0.717-4.186 8.617-11.123 13.969-20.182 16.554-12.227 3.489-23.921 2.099-34.831-4.583-5.998-3.674-10.065-8.993-12.584-15.527C15.25 69.259 15.235 69.197 15.219 69.142z" fill="#0074d9" data-fill-palette-color="accent"></path><path fill-rule="evenodd" clip-rule="evenodd" d="M51.488 12.481c-2.209-0.051-4.142-0.317-5.901-1.283-0.54-0.296-1.061-0.693-1.465-1.155-0.819-0.938-0.717-1.995 0.211-2.844 1.071-0.982 2.406-1.394 3.798-1.632 2.532-0.433 5.02-0.274 7.405 0.731 0.615 0.259 1.216 0.607 1.735 1.024 1.325 1.064 1.284 2.482-0.046 3.537-1.156 0.917-2.535 1.25-3.949 1.459C52.61 12.419 51.933 12.444 51.488 12.481z" fill="#0074d9" data-fill-palette-color="accent"></path><path fill-rule="evenodd" clip-rule="evenodd" d="M72.516 86.054C60.72 97.505 37.794 98.438 24.221 83.29c6.659 6.252 14.645 9.373 23.669 9.891C56.91 93.696 65.198 91.521 72.516 86.054z" fill="#0074d9" data-fill-palette-color="accent"></path></g></g></svg></g></svg></g><g></g></svg></g></svg></g></svg></g></svg><rect width="576" height="360" fill="none" stroke="none" visibility="hidden"></rect></g></svg></g></svg>